<svg width="285" height="285" viewBox="0 0 285 285" fill="none" xmlns="http://www.w3.org/2000/svg">
<g clip-path="url(#clip0_19_462)">
<path d="M142.5 0C221.201 0 285 63.7994 285 142.5C285 221.201 221.201 285 142.5 285C63.7994 285 0 221.201 0 142.5C0 63.7994 63.7994 0 142.5 0ZM146.654 82.2305C141.811 80.2125 136.249 82.5028 134.23 87.3457L94.2783 183.229C94.0739 183.701 93.9076 184.193 93.7812 184.701C93.7668 184.759 93.7545 184.816 93.7412 184.874C93.7228 184.954 93.7038 185.035 93.6875 185.116C93.6637 185.233 93.6433 185.351 93.624 185.468C93.6181 185.504 93.611 185.541 93.6055 185.577C93.4592 186.538 93.4633 187.502 93.6074 188.438C93.7902 189.642 94.2018 190.77 94.792 191.781C94.8071 191.807 94.8216 191.834 94.8369 191.859C94.8918 191.951 94.949 192.042 95.0068 192.132C95.0338 192.174 95.0603 192.216 95.0879 192.258C95.1273 192.317 95.1682 192.375 95.209 192.434C95.9496 193.498 96.9123 194.421 98.0684 195.121C98.8748 195.612 99.7605 195.984 100.701 196.218C100.759 196.232 100.816 196.245 100.874 196.258C100.955 196.276 101.035 196.295 101.116 196.312C101.233 196.335 101.351 196.356 101.468 196.375C101.504 196.381 101.541 196.388 101.577 196.394C102.101 196.473 102.624 196.508 103.145 196.5H189C189.338 196.5 189.671 196.482 190 196.447C190.329 196.482 190.662 196.5 191 196.5C196.247 196.5 200.5 192.247 200.5 187V179C200.5 173.753 196.247 169.5 191 169.5C186.264 169.5 182.338 172.966 181.619 177.5H117.25L151.77 94.6543C153.787 89.8113 151.497 84.2485 146.654 82.2305Z" fill="#286CE4"/>
</g>
<defs>
<clipPath id="clip0_19_462">
<rect width="285" height="285" fill="white"/>
</clipPath>
</defs>
</svg>
