<svg width="82" height="325" viewBox="0 0 82 325" fill="none" xmlns="http://www.w3.org/2000/svg">
<path d="M21 274.375L41.25 294.625L61.5 274.375" stroke="#286CE4" stroke-opacity="0.5" stroke-width="8" stroke-linecap="round" stroke-linejoin="round"/>
<path d="M21 295L41.25 315.25L61.5 295" stroke="#286CE4" stroke-opacity="0.5" stroke-width="8" stroke-linecap="round" stroke-linejoin="round"/>
<path d="M21 254L41.25 274.25L61.5 254" stroke="#286CE4" stroke-opacity="0.5" stroke-width="8" stroke-linecap="round" stroke-linejoin="round"/>
<path d="M21 213.375L41.25 233.625L61.5 213.375" stroke="#286CE4" stroke-opacity="0.5" stroke-width="8" stroke-linecap="round" stroke-linejoin="round"/>
<path d="M21 234L41.25 254.25L61.5 234" stroke="#286CE4" stroke-opacity="0.5" stroke-width="8" stroke-linecap="round" stroke-linejoin="round"/>
<path d="M21 193L41.25 213.25L61.5 193" stroke="#286CE4" stroke-opacity="0.5" stroke-width="8" stroke-linecap="round" stroke-linejoin="round"/>
<path d="M21 152.375L41.25 172.625L61.5 152.375" stroke="#286CE4" stroke-opacity="0.5" stroke-width="8" stroke-linecap="round" stroke-linejoin="round"/>
<path d="M21 173L41.25 193.25L61.5 173" stroke="#286CE4" stroke-opacity="0.5" stroke-width="8" stroke-linecap="round" stroke-linejoin="round"/>
<path d="M21 132L41.25 152.25L61.5 132" stroke="#286CE4" stroke-opacity="0.5" stroke-width="8" stroke-linecap="round" stroke-linejoin="round"/>
<path d="M21 91.375L41.25 111.625L61.5 91.375" stroke="#286CE4" stroke-opacity="0.5" stroke-width="8" stroke-linecap="round" stroke-linejoin="round"/>
<path d="M21 112L41.25 132.25L61.5 112" stroke="#286CE4" stroke-opacity="0.5" stroke-width="8" stroke-linecap="round" stroke-linejoin="round"/>
<path d="M21 71L41.25 91.25L61.5 71" stroke="#286CE4" stroke-opacity="0.5" stroke-width="8" stroke-linecap="round" stroke-linejoin="round"/>
<path d="M21 30.375L41.25 50.625L61.5 30.375" stroke="#286CE4" stroke-opacity="0.5" stroke-width="8" stroke-linecap="round" stroke-linejoin="round"/>
<path d="M21 51L41.25 71.25L61.5 51" stroke="#286CE4" stroke-opacity="0.5" stroke-width="8" stroke-linecap="round" stroke-linejoin="round"/>
<path d="M21 10L41.25 30.25L61.5 10" stroke="#286CE4" stroke-opacity="0.5" stroke-width="8" stroke-linecap="round" stroke-linejoin="round"/>
</svg>
