<svg width="30" height="30" viewBox="0 0 30 30" fill="none" xmlns="http://www.w3.org/2000/svg">
<g clip-path="url(#clip0_19_462)">
<path d="M15 0C23.2843 0 30 6.71573 30 15C30 23.2843 23.2843 30 15 30C6.71573 30 0 23.2843 0 15C0 6.71573 6.71573 0 15 0ZM21.332 8.66797C20.9415 8.27744 20.3085 8.27744 19.918 8.66797L15 13.5859L10.082 8.66797C9.69151 8.27744 9.05849 8.27744 8.66797 8.66797C8.27744 9.05849 8.27744 9.69151 8.66797 10.082L13.5859 15L8.66797 19.918C8.27744 20.3085 8.27744 20.9415 8.66797 21.332C9.05849 21.7226 9.69151 21.7226 10.082 21.332L15 16.4141L19.918 21.332C20.3085 21.7226 20.9415 21.7226 21.332 21.332C21.7226 20.9415 21.7226 20.3085 21.332 19.918L16.4141 15L21.332 10.082C21.7226 9.69151 21.7226 9.05849 21.332 8.66797Z" fill="#286CE4"/>
</g>
<defs>
<clipPath id="clip0_19_462">
<rect width="30" height="30" fill="white"/>
</clipPath>
</defs>
</svg>
