<svg width="119" height="40" viewBox="0 0 119 40" fill="none" xmlns="http://www.w3.org/2000/svg">
<g clip-path="url(#clip0_29_3)">
<mask id="mask0_29_3" style="mask-type:luminance" maskUnits="userSpaceOnUse" x="0" y="0" width="119" height="40">
<path d="M119 0H0V40H119V0Z" fill="white"/>
</mask>
<g mask="url(#mask0_29_3)">
<path d="M26.0797 17.3824C26.0797 17.6511 26.0681 17.9543 26.0681 18.5022C26.0681 19.1158 26.0902 22.1923 26.0902 22.4096C26.0902 23.0849 26.0902 23.6664 25.871 24.1056C25.4288 25.0206 24.4401 25.0206 24.098 25.0206C23.817 25.0177 23.5369 24.9891 23.2611 24.9353L23.2193 24.8734C23.2193 24.6791 23.2275 24.4871 23.2275 24.2913C23.2275 24.032 23.2193 23.7951 23.2051 23.5153L23.2725 23.4624C23.3906 23.54 23.5274 23.5844 23.6686 23.5908C23.7625 23.5945 23.8551 23.568 23.9328 23.5153C24.2402 23.3337 24.2623 22.9352 24.2623 22.1068C24.2623 21.6963 24.2402 20.9862 24.2402 20.5018C24.2089 19.2121 24.2089 19.0388 24.1645 17.4156L24.2305 17.3509C24.946 17.3509 25.188 17.3509 26.0248 17.3185L26.0797 17.3824ZM29.2077 21.6435V23.6002H29.6562C30.8562 23.5806 31.1317 23.5806 31.616 23.5451L31.6811 23.6118C31.6379 24.172 31.6268 24.3038 31.6044 24.8805L31.5375 24.9473H29.7765C28.4001 24.9473 28.1024 24.9473 27.41 24.9788L27.3557 24.914C27.3773 24.0618 27.3867 23.4619 27.3867 22.0733C27.3867 20.5373 27.3773 18.5451 27.3113 17.404L27.3656 17.3412C28.7419 17.3509 30.2061 17.3509 31.494 17.3182L31.5475 17.3716C31.504 17.8881 31.504 18.0284 31.4829 18.5673L31.4172 18.632H31.2165C30.8883 18.632 30.5474 18.6198 30.2172 18.6198H29.1708C29.1708 19.384 29.1708 19.5797 29.1819 20.4052H29.6547C30.228 20.4052 30.5693 20.3956 31.3163 20.3734L31.3834 20.439C31.3376 20.9859 31.3376 21.064 31.3163 21.589L31.2517 21.6549C30.722 21.6438 30.1942 21.6438 29.6661 21.6438L29.2077 21.6435ZM34.2785 21.6546C34.6641 21.664 35.3022 21.6546 35.6884 21.6435L35.3693 20.2658C35.2044 19.482 35.1916 19.3945 35.0281 18.5775C34.8717 19.2667 34.8083 19.5348 34.6195 20.322L34.2785 21.6546ZM36.3913 24.9152C36.2935 24.3754 36.1829 23.8266 35.9733 22.9136C35.3355 22.9002 34.6854 22.9002 34.0362 22.9136C33.8699 23.5692 33.7158 24.2254 33.596 24.8805L33.5213 24.9473C32.7384 24.9473 32.6397 24.9473 31.9231 24.9674L31.8663 24.9155C32.1318 24.076 32.2075 23.7706 32.5066 22.7179L33.1109 20.5782C33.2423 20.1055 33.3865 19.6326 33.5204 19.1485C33.585 18.9005 33.9262 17.6858 34.0015 17.404L34.0689 17.352C34.9599 17.352 35.2462 17.352 36.2159 17.3185L36.2813 17.3824L36.38 17.7381C36.6339 18.7389 36.8301 19.4709 37.1065 20.4728L37.6468 22.494C37.8774 23.386 38.0663 24.0979 38.0987 24.1837C38.184 24.5041 38.2511 24.7518 38.2846 24.8737L38.2298 24.9356C37.4466 24.9478 37.1731 24.9592 36.4582 24.9794L36.3913 24.9152ZM40.2445 20.049L40.3085 22.0421C40.3423 23.4726 40.3528 23.8601 40.398 24.8802L40.3306 24.947C39.6496 24.947 39.4736 24.947 38.9 24.9785L38.8346 24.9137C38.8457 24.2584 38.8556 23.6888 38.8556 22.9877C38.8556 21.9651 38.8346 19.9746 38.8235 19.286C38.8124 18.9971 38.8013 18.2224 38.7686 17.4151L38.8346 17.3514C39.6496 17.3514 39.7813 17.3514 40.5391 17.3179L40.6287 17.3818C40.9361 17.9753 41.0677 18.2224 41.9711 19.8127L43.2132 22.0219L43.1712 19.8345L43.1376 18.6502C43.1271 17.9838 43.1271 17.9219 43.0958 17.4148L43.1598 17.3512C43.844 17.3407 43.9964 17.3407 44.5589 17.3176L44.612 17.3816C44.612 18.9752 44.6007 20.4382 44.6007 20.8887C44.6007 21.7069 44.6007 23.6116 44.6464 24.8802L44.5796 24.947C43.8312 24.947 43.6981 24.947 42.9963 24.9785L42.9078 24.9137C42.6539 24.4288 42.5865 24.3107 41.7624 22.8684L40.2445 20.049ZM51.4368 23.4082C52.0072 23.0639 52.2842 22.2457 52.2842 20.8347C52.2842 20.437 52.262 19.5891 51.8431 19.0928C51.6927 18.9358 51.5087 18.8147 51.305 18.7386C51.1012 18.6624 50.8828 18.6332 50.6662 18.6531C50.5123 18.6531 50.4463 18.6531 50.2811 18.663C50.2811 20.322 50.2811 21.9659 50.3235 23.6116C50.7066 23.6572 51.0946 23.5863 51.4368 23.4082ZM48.4746 17.3526C49.1002 17.3526 50.1034 17.3421 50.7191 17.3421C51.3821 17.2976 52.047 17.3964 52.6684 17.6318C54.0643 18.2988 54.198 20.0092 54.198 20.9867C54.198 22.1401 53.9858 23.0653 53.5468 23.711C52.8333 24.764 51.7553 24.9163 50.8615 24.9481C50.5305 24.9595 48.8801 24.9683 48.5178 24.9797L48.4518 24.9163C48.462 24.43 48.4748 23.8388 48.4748 22.7187C48.4748 20.945 48.4623 19.1707 48.418 17.4046L48.4746 17.3526ZM57.0447 21.6435V23.6002H57.4966C58.6955 23.5806 58.969 23.5806 59.4559 23.5451L59.5198 23.6118C59.478 24.172 59.4667 24.3038 59.4431 24.8805L59.3791 24.9473H57.6177C56.2391 24.9473 55.9428 24.9473 55.2507 24.9788L55.1958 24.914C55.218 24.0618 55.2276 23.4619 55.2276 22.0733C55.2276 20.5373 55.218 18.5451 55.152 17.404L55.2055 17.3412C56.5812 17.3509 58.0446 17.3509 59.3324 17.3182L59.3893 17.3716C59.3435 17.8881 59.3435 18.0284 59.3225 18.5673L59.2565 18.632H59.0609C58.7293 18.632 58.3855 18.6198 58.0571 18.6198H57.0106C57.0106 19.384 57.0106 19.5797 57.0245 20.4052H57.496C58.0679 20.4052 58.4091 20.3956 59.1576 20.3734L59.2235 20.439C59.1797 20.9859 59.1797 21.064 59.1576 21.589L59.0907 21.6549C58.5621 21.6438 58.0343 21.6438 57.5057 21.6438L57.0447 21.6435ZM64.8904 17.3824C64.8599 18.4392 64.8599 18.7724 64.8599 20.5666C64.8599 21.2015 64.8474 22.2142 64.8474 22.8502C64.8474 23.2031 64.8599 23.3985 64.8685 23.6022H65.2097C66.3329 23.5812 66.5536 23.5692 67.0709 23.5368L67.1357 23.6022C67.0933 24.1837 67.0808 24.3558 67.0709 24.8939L67.0055 24.9478H64.1974C63.7341 24.9578 63.6687 24.9578 63.0741 24.968L63.0101 24.916C63.0101 24.4871 63.0212 23.849 63.0212 22.8588C63.0212 22.8068 63.0101 18.4272 62.9791 17.4159L63.03 17.3512C63.8661 17.3512 64.0981 17.3415 64.8269 17.3188L64.8904 17.3824ZM69.9097 21.6552C70.2927 21.6645 70.9334 21.6552 71.3196 21.6441L70.9982 20.2663C70.8341 19.4826 70.823 19.3951 70.657 18.5781C70.5026 19.2672 70.4357 19.5354 70.2501 20.3226L69.9097 21.6552ZM72.0214 24.9157C71.9238 24.376 71.8146 23.8272 71.6048 22.9142C70.9669 22.9008 70.3157 22.9008 69.6665 22.9142C69.5016 23.5698 69.3478 24.226 69.2275 24.8811L69.1496 24.9478C68.3701 24.9478 68.2697 24.9478 67.5523 24.968L67.498 24.916C67.7636 24.0766 67.8392 23.7712 68.1372 22.7184L68.7438 20.5788C68.8766 20.1061 69.0171 19.6331 69.1499 19.1491C69.2153 18.9011 69.5576 17.6864 69.6333 17.4046L69.6992 17.3526C70.591 17.3526 70.8762 17.3526 71.847 17.3191L71.911 17.383L72.0103 17.7386C72.2662 18.7394 72.4618 19.4715 72.7363 20.4734L73.2765 22.4946C73.506 23.3866 73.6931 24.0985 73.727 24.1843C73.8123 24.5047 73.8831 24.7524 73.9107 24.8743L73.8586 24.9362C73.0766 24.9484 72.8022 24.9598 72.0868 24.9799L72.0214 24.9157ZM80.9589 22.1722L81.6414 19.1999C81.8513 18.3502 81.8848 18.1809 82.0361 17.4154L82.1038 17.3517C83.0422 17.3517 83.3141 17.3412 84.3787 17.3182L84.4595 17.3821C84.472 18.2755 84.4805 18.5139 84.5334 19.686L84.6011 21.3532C84.6989 23.3653 84.7222 23.8377 84.791 24.8805L84.7367 24.9473C83.9177 24.9351 83.6664 24.9473 83.0052 24.9788L82.9384 24.9155C82.927 23.5695 82.927 23.3968 82.896 21.9023L82.8724 19.0164L82.0355 22.5363C81.7623 23.7294 81.6408 24.2692 81.5203 24.8805L81.4446 24.9473C80.8813 24.9351 80.6931 24.9473 80.1107 24.9788L80.0461 24.9155C79.8911 24.2254 79.7049 23.3968 79.5266 22.6429L78.7156 19.1067L78.6488 21.5802C78.5919 23.8167 78.5919 24.0547 78.5919 24.8816L78.535 24.9484C77.9404 24.9484 77.7448 24.9484 77.093 24.9799L77.039 24.9166C77.1394 23.1505 77.1487 22.9579 77.2161 21.7949L77.314 19.4272C77.3489 18.4156 77.358 17.9114 77.3708 17.4165L77.4357 17.3529C78.4045 17.3529 78.7036 17.3529 79.7692 17.3193L79.8366 17.3833C79.9568 17.9551 79.9679 17.9855 80.2347 19.1161L80.9589 22.1722ZM87.7584 21.6435V23.6002H88.2094C89.4097 23.5806 89.6855 23.5806 90.1692 23.5451L90.2372 23.6118C90.1903 24.172 90.1803 24.3038 90.1579 24.8805L90.089 24.9473H88.3302C86.9531 24.9473 86.6585 24.9473 85.9646 24.9788L85.9103 24.914C85.9319 24.0618 85.9416 23.4619 85.9416 22.0733C85.9416 20.5373 85.9319 18.5451 85.8645 17.404L85.9214 17.3412C87.298 17.3509 88.7622 17.3509 90.0501 17.3182L90.1044 17.3716C90.06 17.8881 90.06 18.0284 90.0373 18.5673L89.9716 18.632H89.774C89.4418 18.632 89.1017 18.6198 88.7727 18.6198H87.726C87.726 19.384 87.726 19.5797 87.7379 20.4052H88.2102C88.7841 20.4052 89.1256 20.3956 89.8741 20.3734L89.9392 20.439C89.8948 20.9859 89.8948 21.064 89.8741 21.589L89.8081 21.6549C89.2792 21.6438 88.7508 21.6438 88.2225 21.6438L87.7584 21.6435ZM92.6125 20.049L92.6782 22.0421C92.7097 23.4726 92.7214 23.8601 92.7658 24.8802L92.6992 24.947C92.0167 24.947 91.8402 24.947 91.2694 24.9785L91.2023 24.9137C91.2137 24.2584 91.2254 23.6888 91.2254 22.9877C91.2254 21.9651 91.2023 19.9746 91.1912 19.286C91.181 18.9971 91.1708 18.2224 91.1344 17.4151L91.2029 17.3514C92.017 17.3514 92.1501 17.3514 92.9091 17.3179L92.9964 17.3818C93.3052 17.9753 93.4354 18.2224 94.3389 19.8127L95.5824 22.0219L95.5392 19.8345L95.5067 18.6502C95.4954 17.9838 95.4954 17.9219 95.4624 17.4148L95.5289 17.3512C96.21 17.3407 96.3618 17.3407 96.9251 17.3176L96.982 17.3816C96.982 18.9752 96.9684 20.4382 96.9684 20.8887C96.9684 21.7069 96.9684 23.6116 97.0116 24.8802L96.9468 24.947C96.198 24.947 96.0692 24.947 95.3597 24.9785L95.2744 24.9137C95.0233 24.4288 94.9568 24.3107 94.1313 22.8684L92.6125 20.049ZM99.7216 20.049L99.787 22.0421C99.8211 23.4726 99.8314 23.8601 99.8783 24.8802L99.8083 24.947C99.1273 24.947 98.9527 24.947 98.3791 24.9785L98.312 24.9137C98.3256 24.2584 98.3359 23.6888 98.3359 22.9877C98.3359 21.9651 98.312 19.9746 98.302 19.286C98.2901 18.9971 98.2821 18.2224 98.2472 17.4151L98.312 17.3514C99.1276 17.3514 99.2589 17.3514 100.018 17.3179L100.107 17.3818C100.414 17.9753 100.546 18.2224 101.446 19.8127L102.693 22.0219L102.648 19.8345L102.616 18.6502C102.604 17.9838 102.604 17.9219 102.571 17.4148L102.638 17.3512C103.32 17.3407 103.473 17.3407 104.035 17.3176L104.092 17.3816C104.092 18.9752 104.081 20.4382 104.081 20.8887C104.081 21.7069 104.081 23.6116 104.124 24.8802L104.06 24.947C103.309 24.947 103.178 24.947 102.473 24.9785L102.386 24.9137C102.132 24.4288 102.064 24.3107 101.24 22.8684L99.7216 20.049ZM107.051 21.6543C107.437 21.6637 108.075 21.6543 108.46 21.6432L108.142 20.2655C107.973 19.4817 107.966 19.3942 107.799 18.5772C107.645 19.2664 107.58 19.5345 107.39 20.3217L107.051 21.6543ZM109.163 24.9149C109.064 24.3751 108.957 23.8263 108.746 22.9133C108.11 22.9 107.459 22.9 106.81 22.9133C106.645 23.5689 106.491 24.2252 106.369 24.8802L106.29 24.947C105.509 24.947 105.411 24.947 104.696 24.9672L104.641 24.9152C104.905 24.0757 104.983 23.7704 105.278 22.7176L105.883 20.5779C106.015 20.1053 106.159 19.6323 106.29 19.1482C106.358 18.9002 106.7 17.6855 106.776 17.4037L106.842 17.3517C107.734 17.3517 108.017 17.3517 108.988 17.3182L109.053 17.3821L109.153 17.7378C109.407 18.7386 109.604 19.4706 109.88 20.4726L110.421 22.4937C110.652 23.3857 110.839 24.0976 110.871 24.1834C110.96 24.5038 111.024 24.7515 111.059 24.8734L111.002 24.9353C110.222 24.9476 109.944 24.9589 109.231 24.9791L109.163 24.9149ZM113.468 24.9467C112.685 24.9345 112.5 24.9467 111.652 24.9782L111.586 24.9135C111.608 23.5045 111.615 22.1057 111.615 20.6956C111.615 19.6629 111.615 19.0709 111.564 17.4145L111.615 17.3509C112.377 17.3591 112.61 17.3591 113.445 17.3174L113.509 17.3813C113.477 18.3392 113.467 19.2846 113.467 20.2334C113.467 21.7929 113.477 23.3425 113.532 24.8799L113.468 24.9467ZM118.54 18.9528C118.207 18.6355 117.765 18.4584 117.305 18.4579C116.746 18.4579 116.384 18.7812 116.384 19.2425C116.384 19.5885 116.561 19.8232 116.912 20.0822C117.023 20.1788 117.617 20.5652 117.746 20.6527C118.442 21.1256 119 21.6211 119 22.698C119.016 23.2876 118.814 23.8623 118.431 24.3118C117.858 24.9467 117.075 25.085 116.329 25.085C115.76 25.0918 115.196 24.9744 114.677 24.741L114.612 24.6342C114.622 24.407 114.644 24.1723 114.655 23.9351C114.666 23.7312 114.677 23.5269 114.677 23.3218L114.764 23.2903C115.137 23.6306 115.625 23.8179 116.131 23.815C116.955 23.815 117.178 23.2468 117.178 22.8806C117.178 22.4088 116.865 22.1489 116.341 21.7932L115.879 21.4807C115.308 21.083 114.589 20.5879 114.589 19.407C114.576 19.1118 114.624 18.8171 114.73 18.5413C114.836 18.2654 114.998 18.0143 115.205 17.8034C115.712 17.3721 116.368 17.1555 117.033 17.1998C117.599 17.1894 118.16 17.308 118.674 17.5463L118.719 17.6315C118.696 17.8571 118.674 18.0824 118.663 18.3082L118.63 18.9224" fill="#001731"/>
<path d="M9.86571 3.39041H11.316L10.5917 1.69506L9.86571 0L9.14143 1.69506L8.41602 3.39012L9.86571 3.39041Z" fill="#001731"/>
<path d="M5.98638 4.61674L7.18754 3.80485L5.63633 2.80691L4.08398 1.80896L4.43432 3.61879L4.78523 5.42975L5.98638 4.61674Z" fill="#001731"/>
<path d="M3.70981 7.91421L4.20233 6.55066L2.35994 6.65633L0.517822 6.76371L1.86742 8.02074L3.21729 9.27776L3.70981 7.91421Z" fill="#001731"/>
<path d="M13.7368 4.61674L12.5354 3.80485L14.0869 2.80691L15.6384 1.80896L15.288 3.61879L14.9369 5.42975L13.7368 4.61674Z" fill="#001731"/>
<path d="M16.013 7.91421L15.5205 6.55066L17.3629 6.65633L19.2042 6.76371L17.8546 8.02074L16.5055 9.27719L16.013 7.91421Z" fill="#001731"/>
<path d="M11.9446 7.06458C11.9447 7.45951 11.8275 7.84559 11.6079 8.17399C11.3883 8.50239 11.0762 8.75836 10.7109 8.90953C10.3457 9.06071 9.9438 9.10029 9.55605 9.02328C9.1683 8.94626 8.81212 8.75612 8.53256 8.47688C8.25299 8.19764 8.0626 7.84185 7.98545 7.45451C7.9083 7.06717 7.94787 6.66568 8.09914 6.30081C8.25042 5.93593 8.50661 5.62407 8.83532 5.40465C9.16403 5.18523 9.55048 5.06812 9.94582 5.06812C10.4759 5.06812 10.9842 5.27845 11.3591 5.65285C11.7339 6.02725 11.9445 6.53506 11.9446 7.06458Z" fill="#001731"/>
<path d="M9.81655 9.38318L8.60913 11.8736L0.517828 10.1618L6.60323 15.7654L0 40L9.81655 20.941L19.75 40L12.8746 15.7654L19.0098 10.0059L11.1613 11.8739L9.81655 9.38318Z" fill="#001731"/>
<path d="M26.6424 15.3602L26.6072 15.4065C26.297 15.5674 25.9513 15.6477 25.6019 15.6403C24.392 15.6403 23.825 14.7934 23.825 13.8651C23.825 12.8492 24.4855 11.3428 26.1983 11.3428C26.6155 11.3262 27.0277 11.4383 27.3789 11.6638L27.3966 11.7107L27.2385 12.2013L27.1861 12.2129C27.13 12.1593 27.0694 12.1104 27.005 12.0669C26.7668 11.9304 26.4964 11.8599 26.2219 11.8627C25.1981 11.8627 24.4918 12.8549 24.4918 13.8537C24.4786 14.02 24.501 14.1871 24.5575 14.3441C24.614 14.501 24.7032 14.6442 24.8193 14.764C24.9354 14.8838 25.0757 14.9776 25.2309 15.0391C25.3861 15.1006 25.5526 15.1284 25.7194 15.1207C26.1038 15.1156 26.475 14.9796 26.7715 14.7352L26.8125 14.7588L26.6424 15.3602Z" fill="#001731"/>
<path d="M29.558 13.567C29.558 12.9773 29.1781 12.8782 28.9609 12.8782C28.0432 12.8782 27.9266 14.3028 27.9266 14.5187C27.9148 14.6033 27.9215 14.6894 27.9463 14.7712C27.971 14.8529 28.0132 14.9283 28.07 14.9922C28.1268 15.0561 28.1968 15.1068 28.2751 15.141C28.3535 15.1752 28.4383 15.192 28.5238 15.1902C29.1494 15.1902 29.3832 14.5477 29.4884 14.0693C29.5312 13.9052 29.5544 13.7366 29.558 13.567ZM28.5119 15.6215C27.7344 15.6215 27.3079 15.2184 27.3079 14.4241C27.3079 13.7119 27.6878 12.4509 28.9617 12.4509C29.7278 12.4509 30.1845 12.877 30.1845 13.6301C30.1812 13.8394 30.1517 14.0474 30.0969 14.2494C29.9681 14.7516 29.6118 15.6215 28.5127 15.6215" fill="#001731"/>
<path d="M31.5502 13.544C31.3281 14.5715 31.2988 14.7351 31.1586 15.5174L31.1117 15.5526L30.5145 15.5703L30.4912 15.535L30.7599 14.3263L31.0525 12.9659C31.1868 12.3469 31.3386 11.6285 31.4091 11.0507L31.4501 11.0098L32.0928 10.8987L32.1212 10.9339L31.7765 12.4636L31.5502 13.544Z" fill="#001731"/>
<path d="M33.0106 13.544C32.7885 14.5715 32.7593 14.7351 32.6191 15.5174L32.5721 15.5526L31.975 15.5703L31.9517 15.535L32.2204 14.3263L32.5124 12.9659C32.6469 12.3469 32.7991 11.6285 32.8693 11.0507L32.9097 11.0098L33.5529 10.8987L33.5814 10.9339L33.2367 12.4636L33.0106 13.544Z" fill="#001731"/>
<path d="M35.4657 11.226C35.5006 11.5823 35.518 11.6874 35.5885 12.1067L35.5601 12.1476L35.1861 12.1535L35.1392 12.1183C34.9288 11.6277 34.9055 11.5698 34.7476 11.2482L34.7761 11.1959H35.4301L35.4657 11.226ZM35.7694 13.6901C35.7849 13.5993 35.7944 13.5077 35.7978 13.4157C35.8009 13.3363 35.7864 13.2573 35.7554 13.1842C35.7245 13.1111 35.6777 13.0458 35.6185 12.9928C35.5594 12.9398 35.4892 12.9005 35.4131 12.8777C35.337 12.8549 35.2568 12.8492 35.1782 12.8609C35.0423 12.8586 34.9079 12.8887 34.7859 12.9486C34.664 13.0085 34.5581 13.0966 34.4769 13.2055C34.3652 13.3501 34.2818 13.5145 34.2312 13.6901H35.7694ZM35.8746 15.3542L35.8461 15.3894C35.5556 15.5518 35.2264 15.6325 34.8935 15.6229C34.7641 15.6229 34.6349 15.6111 34.5076 15.5877C33.8061 15.4593 33.5371 14.94 33.5371 14.3443C33.5371 13.5034 34.0342 12.4524 35.1915 12.4524C35.4881 12.4363 35.7812 12.5228 36.0213 12.6975C36.1382 12.8036 36.2291 12.9352 36.2869 13.0821C36.3447 13.2289 36.3679 13.3871 36.3546 13.5444C36.3511 13.7232 36.3295 13.9011 36.29 14.0756L36.2491 14.104C36.0563 14.104 35.1034 14.0983 34.8873 14.0983C34.6126 14.0983 34.4607 14.104 34.1565 14.1099C34.1449 14.1971 34.1391 14.2848 34.1391 14.3727C34.1391 14.898 34.4721 15.1434 35.0155 15.1434C35.3684 15.1441 35.7102 15.0199 35.9801 14.7929L36.027 14.8213L35.8746 15.3542Z" fill="#001731"/>
<path d="M38.9539 12.966C38.539 12.9717 38.0246 12.9776 37.6563 13.4273C37.4383 13.7066 37.3155 14.0482 37.3057 14.4022C37.3057 15.1031 37.8142 15.1559 37.9598 15.1559C38.0486 15.1556 38.137 15.1438 38.2228 15.1207C38.392 15.0805 38.5475 14.9959 38.6729 14.8755L39.1055 12.9722L38.9539 12.966ZM39.8249 12.5515C39.6381 13.2932 39.5852 13.5267 39.3807 14.4548L39.2101 15.2371C39.0696 15.8737 38.9761 16.2882 38.719 16.5862C38.5706 16.7389 38.3908 16.8576 38.192 16.9341C37.9932 17.0107 37.7802 17.0433 37.5676 17.0296C37.2675 17.0337 36.9701 16.9719 36.6966 16.8484C36.5678 16.7836 36.4511 16.6971 36.3517 16.5927L36.3457 16.5399L36.5854 16.1723H36.6323C36.7421 16.3068 36.8815 16.4142 37.0397 16.486C37.1978 16.5579 37.3704 16.5924 37.544 16.5868C38.2748 16.5868 38.421 15.9794 38.5029 15.6465L38.5785 15.3431C38.3287 15.5183 38.0307 15.6121 37.7254 15.6115C37.5795 15.6171 37.434 15.5914 37.2988 15.5361C37.1636 15.4808 37.0418 15.3973 36.9416 15.2911C36.8414 15.1849 36.7651 15.0586 36.7179 14.9205C36.6706 14.7824 36.6535 14.6358 36.6676 14.4906C36.669 14.1276 36.7658 13.7713 36.9483 13.4574C37.4741 12.5464 38.3041 12.5291 38.9823 12.5174L39.8007 12.5055L39.8249 12.5515Z" fill="#001731"/>
<path d="M42.3426 13.6897C42.3581 13.5989 42.3676 13.5073 42.3711 13.4153C42.3741 13.336 42.3597 13.2569 42.3287 13.1838C42.2977 13.1107 42.2509 13.0454 42.1918 12.9924C42.1326 12.9394 42.0625 12.9001 41.9863 12.8773C41.9102 12.8545 41.83 12.8488 41.7514 12.8605C41.6156 12.8582 41.4811 12.8883 41.3592 12.9482C41.2372 13.0081 41.1313 13.0962 41.0502 13.2051C40.9384 13.3497 40.8551 13.5141 40.8045 13.6897H42.3426ZM42.4478 15.3538L42.4194 15.389C42.1288 15.5514 41.7996 15.6321 41.4668 15.6225C41.3373 15.6225 41.2082 15.6107 41.0809 15.5873C40.3794 15.4589 40.1104 14.9396 40.1104 14.3439C40.1104 13.5031 40.6074 12.452 41.7645 12.452C42.0612 12.4358 42.3544 12.5224 42.5946 12.6971C42.7115 12.8032 42.8024 12.9348 42.8602 13.0817C42.918 13.2285 42.9411 13.3867 42.9278 13.544C42.9244 13.7228 42.9028 13.9007 42.8633 14.0752L42.8223 14.1036C42.6295 14.1036 41.6766 14.0979 41.4605 14.0979C41.1855 14.0979 41.034 14.1036 40.7297 14.1096C40.7181 14.1967 40.7123 14.2844 40.7124 14.3723C40.7124 14.8976 41.0453 15.143 41.5888 15.143C41.9417 15.1437 42.2834 15.0195 42.5533 14.7925L42.6002 14.8209L42.4478 15.3538Z" fill="#001731"/>
</g>
</g>
<defs>
<clipPath id="clip0_29_3">
<rect width="119" height="40" fill="white"/>
</clipPath>
</defs>
</svg>
